<svg width="1200" height="800" viewBox="0 0 1200 800" fill="none" xmlns="http://www.w3.org/2000/svg">
  <rect width="1200" height="800" rx="36" fill="transparent"/>
  <rect x="120" y="90" width="960" height="620" rx="28" fill="#F2EDE5" fill-opacity="0.9"/>
  <rect x="180" y="150" width="220" height="400" rx="24" fill="#D8C4A2"/>
  <rect x="420" y="170" width="320" height="320" rx="24" fill="#E9DFC7"/>
  <rect x="760" y="170" width="220" height="220" rx="24" fill="#E7D7B3"/>
  <rect x="780" y="420" width="180" height="120" rx="22" fill="#CBB28A"/>
  <rect x="220" y="190" width="140" height="120" rx="18" fill="#B78D5B"/>
  <rect x="450" y="210" width="100" height="100" rx="18" fill="#F6EEDC"/>
  <rect x="575" y="210" width="120" height="100" rx="18" fill="#F6EEDC"/>
  <rect x="440" y="350" width="260" height="80" rx="18" fill="#C59E6B"/>
  <rect x="740" y="220" width="180" height="110" rx="18" fill="#F6EEDC"/>
  <path d="M220 510H800" stroke="#8A6A3D" stroke-width="16" stroke-linecap="round"/>
  <rect x="200" y="520" width="640" height="24" rx="12" fill="#B79055"/>
  <rect x="520" y="150" width="120" height="40" rx="12" fill="#8A6A3D" fill-opacity="0.65"/>
</svg>
