<svg width="1200" height="800" viewBox="0 0 1200 800" fill="none" xmlns="http://www.w3.org/2000/svg">
  <rect width="1200" height="800" rx="36" fill="transparent"/>
  <rect x="140" y="120" width="920" height="560" rx="30" fill="#EFE5D1" fill-opacity="0.92"/>
  <rect x="200" y="180" width="320" height="300" rx="24" fill="#D9C39B"/>
  <rect x="560" y="180" width="260" height="220" rx="24" fill="#E6D5AE"/>
  <rect x="860" y="180" width="120" height="140" rx="24" fill="#E0C998"/>
  <rect x="220" y="220" width="140" height="80" rx="16" fill="#F7F0E0"/>
  <rect x="380" y="220" width="110" height="80" rx="16" fill="#F7F0E0"/>
  <rect x="580" y="220" width="100" height="80" rx="16" fill="#F7F0E0"/>
  <rect x="700" y="220" width="90" height="80" rx="16" fill="#F7F0E0"/>
  <rect x="220" y="330" width="260" height="90" rx="20" fill="#B78A52"/>
  <rect x="560" y="430" width="300" height="120" rx="20" fill="#CFAE74"/>
  <rect x="200" y="470" width="700" height="24" rx="12" fill="#A4763A"/>
  <path d="M590 510L640 455L700 485L760 420" stroke="#7C4A1F" stroke-width="14" stroke-linecap="round" stroke-linejoin="round"/>
</svg>
