<svg width="640" height="640" viewBox="0 0 640 640" fill="none" xmlns="http://www.w3.org/2000/svg">
  <rect width="640" height="640" rx="40" fill="#101511"/>
  <rect x="90" y="100" width="460" height="420" rx="30" fill="#161C17" stroke="#2F3E2D" stroke-width="2"/>
  <rect x="126" y="150" width="388" height="76" rx="18" fill="#1F2B21"/>
  <rect x="150" y="174" width="110" height="12" rx="6" fill="#66B159"/>
  <rect x="150" y="198" width="180" height="10" rx="5" fill="#4E5D49"/>
  <rect x="126" y="248" width="388" height="220" rx="24" fill="#111714" stroke="#2F3E2D" stroke-width="2"/>
  <path d="M170 404C214 354 254 318 302 282C336 256 386 234 472 208" stroke="#66B159" stroke-width="16" stroke-linecap="round"/>
  <circle cx="302" cy="282" r="14" fill="#66B159"/>
  <circle cx="472" cy="208" r="14" fill="#66B159"/>
  <circle cx="170" cy="404" r="14" fill="#7BCB70"/>
  <path d="M172 384L224 340L274 356L332 312" stroke="#7BCB70" stroke-width="10" stroke-linecap="round" stroke-linejoin="round"/>
  <rect x="170" y="286" width="84" height="48" rx="12" fill="#233224"/>
  <rect x="428" y="316" width="54" height="96" rx="14" fill="#233224"/>
  <rect x="500" y="278" width="54" height="134" rx="14" fill="#1C2B1F"/>
</svg>
