<svg width="640" height="640" viewBox="0 0 640 640" fill="none" xmlns="http://www.w3.org/2000/svg">
  <rect width="640" height="640" rx="40" fill="#0F1410"/>
  <rect x="80" y="86" width="480" height="468" rx="30" fill="#161C17" stroke="#2F3E2D" stroke-width="2"/>
  <rect x="116" y="126" width="408" height="78" rx="18" fill="#202A20"/>
  <rect x="142" y="152" width="138" height="12" rx="6" fill="#66B159"/>
  <rect x="142" y="174" width="194" height="10" rx="5" fill="#4D5C4A"/>
  <rect x="116" y="230" width="408" height="266" rx="24" fill="#111714" stroke="#2F3E2D" stroke-width="2"/>
  <rect x="148" y="260" width="132" height="92" rx="16" fill="#1D2A1F"/>
  <path d="M184 324L204 304L224 314L248 284" stroke="#66B159" stroke-width="10" stroke-linecap="round" stroke-linejoin="round"/>
  <rect x="300" y="260" width="192" height="92" rx="16" fill="#1D2A1F"/>
  <path d="M332 330H454" stroke="#66B159" stroke-width="10" stroke-linecap="round"/>
  <path d="M332 306H418" stroke="#7BCB70" stroke-width="10" stroke-linecap="round"/>
  <rect x="148" y="378" width="344" height="84" rx="18" fill="#1A231D"/>
  <rect x="176" y="404" width="110" height="12" rx="6" fill="#66B159"/>
  <rect x="176" y="426" width="160" height="10" rx="5" fill="#4D5C4A"/>
  <rect x="420" y="402" width="44" height="18" rx="9" fill="#66B159"/>
  <rect x="472" y="402" width="44" height="18" rx="9" fill="#2E3C2D"/>
</svg>
